. 
 
http://www.torrenting.com          :     Once & For all ;)


               www . Torrenting . Com 

(((((((((((((= Enjoy No RAR releases =))))))))))))))))))))


...................................NFO:....................................

.                                                                                                     
       
     
     
       
       
     
     
                                         
                                         
                EXVID                    
                                         
         
                                         
         Filled the Archives             
                                         
         
                                         
                With:                    
                                         
         
                                         
                                    
     E240                           
                                    
     SP               (C) 2009      
                                         
     
     
     
                                                                                  
                                                                                   
                 Hard.Rain.1998.iNTERNAL.BDRip.XviD-EXViDiNT                        
                                                                                   
                                                                                  
     
                                                                                               
EXViD aims to iNTERNAL those releases which have been lost in the archives.
EXViD aims to PRE non-internal releases which have poor sources and are likely skipped by others. 
http://www.imdb.com/title/tt0120696/
Subtitles: EN, EL, IT, KO, PL, PT, ES, TH, ZH, NL
Date: 2012.01

Director: Mikael Salomon

Genre: Action | Crime | Thriller

Plot:
Young Tom helps his uncle Charlie, who is a bank armoured-truck driver. Criminal Jim leads a gang 
of four, they want to steal that truck with money, but the city is taken by a flood. Tom manages 
to hide the moneybags and everyone wants them, including local sheriff, who wants that money for 
himself.

Cast:
Morgan Freeman 	... 	Jim
Christian Slater... 	Tom
Randy Quaid 	... 	Sheriff Mike Collins
Minnie Driver 	... 	Karen
Edward Asner 	... 	Uncle Charlie
Michael A. Goorjian 	... 	Kenny (as Michael Goorjian)
Dann Florek 	... 	Mr. Mehlor
Ricky Harris 	... 	Ray
Mark Rolston 	... 	Wayne Bryce
Peter Murnik 	... 	Phil
Wayne Duvall 	... 	Hank
Richard Dysart 	... 	Henry Sears
Betty White 	... 	Doreen Sears
Ray Baker 	... 	Mayor
Lisa Fuhrman 	... 	Mayor's Wife 

Stats:
Format                                   : AVI
Format/Info                              : Audio Video Interleave
Format profile                           : OpenDML
File size                                : 1.37 GiB
Duration                                 : 1h 36mn
Overall bit rate mode                    : Variable
Overall bit rate                         : 2 023 Kbps

Video
ID                                       : 0
Format                                   : MPEG-4 Visual
Format profile                           : Advanced Simple@L5
Format settings, BVOP                    : 2
Format settings, QPel                    : No
Format settings, GMC                     : No warppoints
Format settings, Matrix                  : Default (MPEG)
Codec ID                                 : XVID
Codec ID/Hint                            : XviD
Duration                                 : 1h 36mn
Bit rate                                 : 1 853 Kbps
Width                                    : 640 pixels
Height                                   : 272 pixels
Display aspect ratio                     : 2.35:1
Frame rate                               : 23.976 fps
Color space                              : YUV
Chroma subsampling                       : 4:2:0
Bit depth                                : 8 bits
Scan type                                : Progressive
Compression mode                         : Lossy
Bits/(Pixel*Frame)                       : 0.444
Stream size                              : 1.25 GiB (92%)
Writing library                          : XviD 64

Audio
ID                                       : 1
Format                                   : MPEG Audio
Format version                           : Version 1
Format profile                           : Layer 3
Mode                                     : Joint stereo
Mode extension                           : MS Stereo
Codec ID                                 : 55
Codec ID/Hint                            : MP3
Duration                                 : 1h 36mn
Bit rate mode                            : Variable
Bit rate                                 : 156 Kbps
Channel(s)                               : 2 channels
Sampling rate                            : 48.0 KHz
Compression mode                         : Lossy
Stream size                              : 76 MiB (8%)
Alignment                                : Aligned on interleaves
Interleave, duration                     : 717 ms (17.18 video frames)
Interleave, preload duration             : 358 ms


Release notes:
Enjoy!


Looking for:
75TB+ Archives
DUTCH/FLEMiSH Archives
                                                                                                    
Greets: CRBS EPiSODE FiCO FLS iLS KLASSiGER LiPSYNC MADE NODLABS RUNNER SPRiNTER      
   

                                                                    ASCII DONE BY XX^NFO 2009